# xmcd
#
# Track frame offsets:
#	150
#	13822
#	27345
#	39352
#	51867
#	65287
#	76842
#	89652
#	101742
#	112220
#	124005
#	135930
#	154987
#	171447
#
# Disc length: 2655
#
# Revision: 2
# Processed by: cddbd v1.5.1PL0 Copyright (c) Steve Scherf et al.
# Submitted via: CDValet v3.31 - Copyright (c) 1997 Greg Leichner
# Normalized: r1:DSETVAR1
#
DISCID=ba0a5d0e
DTITLE=Various Artist - The Glory Of Love
DYEAR=1900
DGENRE=
TTITLE0=Etta James - At Last
TTITLE1=Otis Redding - The Glory Of Love
TTITLE2=Jerry Butler and Betty Everett - Let It Be Me
TTITLE3=Kelly Lester - Love Letters
TTITLE4=Intruders - Together
TTITLE5=Ruby and The Romantics - Our Day Will Come
TTITLE6=Impressions - I'm So Proud
TTITLE7=Shirelles - Baby It's You
TTITLE8=Shades Of Blue - Oh How Happy
TTITLE9=Peaches and Herb - For Your Love
TTITLE10=Lenny Welch - Ebb Tide
TTITLE11=Friends Of Distinction - Going In circles
TTITLE12=Eddie Holman - Hey There Lonely Girl
TTITLE13=Dells - Stay In My Corner
EXTD=
EXTT0=
EXTT1=
EXTT2=
EXTT3=
EXTT4=
EXTT5=
EXTT6=
EXTT7=
EXTT8=
EXTT9=
EXTT10=
EXTT11=
EXTT12=
EXTT13=
PLAYORDER=
